{"title":"Syrup.2013.HDRip.XVID.AC3.HQ.Hive-CM8","uid":8442602,"size":1360746377,"categoryP":"video","categoryS":"movies","magnet":"?xt=urn:btih:3e13f9ffd2ea99fa6b89ebe0c5589c76fb36f878&amp;dn=Syrup.2013.HDRip.XVID.AC3.HQ.Hive-CM8&amp;tr=udp%3A%2F%2Ftracker.openbittorrent.com%3A80&amp;tr=udp%3A%2F%2Fopen.demonii.com%3A1337&amp;tr=udp%3A%2F%2Ftracker.coppersurfer.tk%3A6969&amp;tr=udp%3A%2F%2Fexodus.desync.com%3A6969","seeders":0,"leechers":0,"uploader":"R0thschild","files":4,"time":1367808542,"description":"--------------------------------------------\n\nSyrup.2013.HDRip.XVID.AC3.HQ.Hive-CM8\n\nSource: 720p web-dl CTRLHD thx\n\nEncode:\n\nquality was nice\nadded brightness,sharpness,rgb and denoise\ngot very nice\nenjoy\n\nVideo: 720x304 @bitrate 1600 2pass\nAudio: English AC3 5.1 @384\nSample: yes included\n &lt;a href=&quot;\nhttp://www.imdb.com/title/tt0762138/&quot; rel=&quot;nofollow&quot; target=&quot;_NEW&quot;&gt;\nhttp://www.imdb.com/title/tt0762138/&lt;/a&gt;\n\nGeneral\nComplete name: Syrup.2013.HDRip.XVID.AC3.HQ.Hive-CM8.avi\nFormat: AVI\nFormat/Info: Audio Video Interleave\nFile size: 1.25 GiB\nDuration: 1h 29mn\nOverall bit rate: 1 993 Kbps\nWriting application: Nandub v1.0rc2\nWriting library: Nandub build 1853/release\n\nVideo\nID: 0\nFormat: MPEG-4 Visual\nFormat profile: Advanced Simple@L5\nFormat settings, BVOP: 2\nFormat settings, QPel: Yes\nFormat settings, GMC: No warppoints\nFormat settings, Matrix: Default (H.263)\nMuxing mode: Packed bitstream\nCodec ID: XVID\nCodec ID/Hint: XviD\nDuration: 1h 29mn\nBit rate: 1 600 Kbps\nWidth: 720 pixels\nHeight: 304 pixels\nDisplay aspect ratio: 2.35:1\nFrame rate: 23.976 fps\nColor space: YUV\nChroma subsampling: 4:2:0\nBit depth: 8 bits\nScan type: Progressive\nCompression mode: Lossy\nBits/(Pixel*Frame): 0.305\nStream size: 1.01 GiB (80%)\nWriting library: XviD 1.2.1 (UTC 2008-12-04)\n\nAudio\nID: 1\nFormat: AC-3\nFormat/Info: Audio Coding 3\nMode extension: CM (complete main)\nFormat settings, Endianness: Big\nCodec ID: 2000\nDuration: 1h 29mn\nBit rate mode: Constant\nBit rate: 384 Kbps\nChannel(s): 6 channels\nChannel positions: Front: L C R, Side: L R, LFE\nSampling rate: 48.0 KHz\nBit depth: 16 bits\nCompression mode: Lossy\nStream size: 247 MiB (19%)\nAlignment: Split accross interleaves\nInterleave, duration: 42 ms (1.00 video frame)\nInterleave, preload duration: 500 ms\n\nPlot:\n\nA slacker hatches a million-dollar idea. But, in order to see it through, he has to learn to trust his attractive corporate counterpart. Based on Max Barry's novel\n\nCast:\n\nAmber Heard ... 6\nBrittany Snow ... Three\nKellan Lutz ... Sneaky Pete\nShiloh Fernandez ... Scat \n\n--------------------------------------------","torrent":{"xt":"urn:btih:3e13f9ffd2ea99fa6b89ebe0c5589c76fb36f878","amp;dn":"Syrup.2013.HDRip.XVID.AC3.HQ.Hive-CM8","amp;tr":["udp%3A%2F%2Ftracker.openbittorrent.com%3A80","udp%3A%2F%2Fopen.demonii.com%3A1337","udp%3A%2F%2Ftracker.coppersurfer.tk%3A6969","udp%3A%2F%2Fexodus.desync.com%3A6969"],"infoHash":"3e13f9ffd2ea99fa6b89ebe0c5589c76fb36f878","infoHashBuffer":{"type":"Buffer","data":[62,19,249,255,210,234,153,250,107,137,235,224,197,88,156,118,251,54,248,120]},"announce":[],"urlList":[]}}